<svg xmlns="http://www.w3.org/2000/svg" version="1.1" xmlns:xlink="http://www.w3.org/1999/xlink" xmlns:svgjs="http://svgjs.com/svgjs" width="1440" height="560" preserveAspectRatio="none" viewBox="0 0 1440 560"><g clip-path="url(&quot;#SvgjsClipPath1010&quot;)" fill="none"><rect width="1440" height="560" x="0" y="0" fill="rgba(250, 251, 253, 1)"></rect><circle r="93.335" cx="-58.96" cy="35.83" stroke="#ff9d99" stroke-opacity="1" stroke-width="2"></circle><circle r="93.335" cx="427.56" cy="361.21" stroke="#ff9d99" stroke-opacity="1" stroke-width="2"></circle><circle r="93.335" cx="781.53" cy="713.58" stroke="#ff9d99" stroke-opacity="1" stroke-width="2"></circle><circle r="78.82" cx="441.01" cy="70.39" stroke="#ff9d99" stroke-opacity="1" stroke-width="2"></circle><circle r="133.2" cx="1041.99" cy="311.48" stroke="#ff9d99" stroke-opacity="1" stroke-width="2"></circle><circle r="47.165" cx="1020.13" cy="399.43" stroke="#ff9d99" stroke-opacity="1" stroke-width="2"></circle><circle r="72.26" cx="329.57" cy="305.52" stroke="#ff9d99" stroke-opacity="1" stroke-width="2"></circle><circle r="183.6" cx="122.52" cy="177.27" stroke="#ff9d99" stroke-opacity="1" stroke-width="2"></circle><circle r="46.795" cx="1041.42" cy="6.7" stroke="#ff9d99" stroke-opacity="1" stroke-width="2"></circle><circle r="104.475" cx="1403.17" cy="546.74" stroke="#ff9d99" stroke-opacity="1" stroke-width="2"></circle><circle r="144.535" cx="430.8" cy="347.53" stroke="#ff9d99" stroke-opacity="1" stroke-width="2"></circle><circle r="66.79" cx="191.93" cy="102.04" stroke="#ff9d99" stroke-opacity="1" stroke-width="2"></circle><circle r="59.17" cx="708.44" cy="474.08" stroke="#ff9d99" stroke-opacity="1" stroke-width="2"></circle><circle r="168.725" cx="1363.54" cy="181.71" stroke="#ff9d99" stroke-opacity="1" stroke-width="2"></circle><circle r="134.75" cx="295.12" cy="1.68" stroke="#ff9d99" stroke-opacity="1" stroke-width="2"></circle><circle r="127.5" cx="261.04" cy="519.05" stroke="#ff9d99" stroke-opacity="1" stroke-width="2"></circle><circle r="144.875" cx="489.13" cy="199.88" stroke="#ff9d99" stroke-opacity="1" stroke-width="2"></circle><circle r="122.745" cx="344.66" cy="169.62" stroke="#ff9d99" stroke-opacity="1" stroke-width="2"></circle><circle r="121.565" cx="218.35" cy="506.35" stroke="#ff9d99" stroke-opacity="1" stroke-width="2"></circle><circle r="184.095" cx="1245.39" cy="556.98" stroke="#ff9d99" stroke-opacity="1" stroke-width="2"></circle><circle r="88.485" cx="1387.6" cy="396.58" stroke="#ff9d99" stroke-opacity="1" stroke-width="2"></circle><circle r="163.09" cx="842.66" cy="166.47" stroke="#ff9d99" stroke-opacity="1" stroke-width="2"></circle><circle r="117.845" cx="431.17" cy="219.98" stroke="#ff9d99" stroke-opacity="1" stroke-width="2"></circle><circle r="126.625" cx="448.61" cy="97.3" stroke="#ff9d99" stroke-opacity="1" stroke-width="2"></circle><circle r="138.875" cx="181.42" cy="17.51" stroke="#ff9d99" stroke-opacity="1" stroke-width="2"></circle><circle r="104.235" cx="1241.82" cy="365.57" stroke="#ff9d99" stroke-opacity="1" stroke-width="2"></circle><circle r="68.455" cx="996" cy="312.63" stroke="#ff9d99" stroke-opacity="1" stroke-width="2"></circle><circle r="65.35" cx="1285.17" cy="543.4" stroke="#ff9d99" stroke-opacity="1" stroke-width="2"></circle><circle r="127.87" cx="711.35" cy="115.75" stroke="#ff9d99" stroke-opacity="1" stroke-width="2"></circle><circle r="94.965" cx="1223.02" cy="435.55" stroke="#ff9d99" stroke-opacity="1" stroke-width="2"></circle><circle r="156.44" cx="1011.78" cy="196.88" stroke="#ff9d99" stroke-opacity="1" stroke-width="2"></circle><circle r="184.895" cx="1319.43" cy="270.41" stroke="#ff9d99" stroke-opacity="1" stroke-width="2"></circle><circle r="181.5" cx="548.96" cy="108.32" stroke="#ff9d99" stroke-opacity="1" stroke-width="2"></circle><circle r="129.945" cx="749.52" cy="136.07" stroke="#ff9d99" stroke-opacity="1" stroke-width="2"></circle><circle r="119.495" cx="295.27" cy="163.59" stroke="#ff9d99" stroke-opacity="1" stroke-width="2"></circle><circle r="113.515" cx="938.94" cy="47.29" stroke="#ff9d99" stroke-opacity="1" stroke-width="2"></circle><circle r="186.565" cx="994.57" cy="417.85" stroke="#ff9d99" stroke-opacity="1" stroke-width="2"></circle><circle r="80.005" cx="1305.48" cy="460.6" stroke="#ff9d99" stroke-opacity="1" stroke-width="2"></circle><circle r="109.705" cx="404.63" cy="466.68" stroke="#ff9d99" stroke-opacity="1" stroke-width="2"></circle><circle r="127.71" cx="181.02" cy="542.88" stroke="#ff9d99" stroke-opacity="1" stroke-width="2"></circle></g><defs><clipPath id="SvgjsClipPath1010"><rect width="1440" height="560" x="0" y="0"></rect></clipPath></defs></svg>