<svg xmlns="http://www.w3.org/2000/svg" version="1.1" xmlns:xlink="http://www.w3.org/1999/xlink" xmlns:svgjs="http://svgjs.com/svgjs" width="400" height="50" preserveAspectRatio="none" viewBox="0 0 400 50"><g clip-path="url(&quot;#SvgjsClipPath1027&quot;)" fill="none"><rect width="400" height="50" x="0" y="0" fill="rgba(250, 251, 253, 1)"></rect><circle r="8.335" cx="-2.41" cy="-2.34" stroke="#ff9d99" stroke-opacity="1" stroke-width="2"></circle><circle r="8.335" cx="36.73" cy="30.22" stroke="#ff9d99" stroke-opacity="1" stroke-width="2"></circle><circle r="8.335" cx="67.74" cy="60.73" stroke="#ff9d99" stroke-opacity="1" stroke-width="2"></circle><circle r="8.335" cx="106.19" cy="104.97" stroke="#ff9d99" stroke-opacity="1" stroke-width="2"></circle><circle r="8.335" cx="137.47" cy="132.75" stroke="#ff9d99" stroke-opacity="1" stroke-width="2"></circle><circle r="8.335" cx="174.97" cy="170.97" stroke="#ff9d99" stroke-opacity="1" stroke-width="2"></circle><circle r="8.335" cx="205.57" cy="192.68" stroke="#ff9d99" stroke-opacity="1" stroke-width="2"></circle><circle r="8.335" cx="230.01" cy="241.03" stroke="#ff9d99" stroke-opacity="1" stroke-width="2"></circle><circle r="8.335" cx="275.04" cy="265.68" stroke="#ff9d99" stroke-opacity="1" stroke-width="2"></circle><circle r="8.335" cx="296.95" cy="301.08" stroke="#ff9d99" stroke-opacity="1" stroke-width="2"></circle><circle r="8.335" cx="335.97" cy="329.85" stroke="#ff9d99" stroke-opacity="1" stroke-width="2"></circle><circle r="16.445" cx="86.62" cy="8.02" stroke="#ff9d99" stroke-opacity="1" stroke-width="2"></circle><circle r="9.475" cx="280.38" cy="35.4" stroke="#ff9d99" stroke-opacity="1" stroke-width="2"></circle><circle r="16.295" cx="44.38" cy="44.2" stroke="#ff9d99" stroke-opacity="1" stroke-width="2"></circle><circle r="16.525" cx="80.06" cy="17.36" stroke="#ff9d99" stroke-opacity="1" stroke-width="2"></circle><circle r="4.365" cx="8.36" cy="34.98" stroke="#ff9d99" stroke-opacity="1" stroke-width="2"></circle><circle r="9.79" cx="343.83" cy="49.15" stroke="#ff9d99" stroke-opacity="1" stroke-width="2"></circle><circle r="4.815" cx="194.07" cy="30.18" stroke="#ff9d99" stroke-opacity="1" stroke-width="2"></circle><circle r="4.34" cx="243.3" cy="12.31" stroke="#ff9d99" stroke-opacity="1" stroke-width="2"></circle><circle r="14.99" cx="292.97" cy="1.7" stroke="#ff9d99" stroke-opacity="1" stroke-width="2"></circle><circle r="15.9" cx="109.03" cy="25.06" stroke="#ff9d99" stroke-opacity="1" stroke-width="2"></circle><circle r="9.795" cx="107.85" cy="46.63" stroke="#ff9d99" stroke-opacity="1" stroke-width="2"></circle><circle r="9.895" cx="103.04" cy="49.97" stroke="#ff9d99" stroke-opacity="1" stroke-width="2"></circle><circle r="12.175" cx="302.04" cy="6.08" stroke="#ff9d99" stroke-opacity="1" stroke-width="2"></circle><circle r="10.72" cx="379.62" cy="11.79" stroke="#ff9d99" stroke-opacity="1" stroke-width="2"></circle><circle r="12.31" cx="397.53" cy="13" stroke="#ff9d99" stroke-opacity="1" stroke-width="2"></circle><circle r="13.555" cx="12.95" cy="43.9" stroke="#ff9d99" stroke-opacity="1" stroke-width="2"></circle><circle r="8.69" cx="397.63" cy="20.71" stroke="#ff9d99" stroke-opacity="1" stroke-width="2"></circle><circle r="9.17" cx="218.22" cy="38.61" stroke="#ff9d99" stroke-opacity="1" stroke-width="2"></circle><circle r="4.81" cx="84.88" cy="12.46" stroke="#ff9d99" stroke-opacity="1" stroke-width="2"></circle><circle r="7.665" cx="394.12" cy="25.72" stroke="#ff9d99" stroke-opacity="1" stroke-width="2"></circle><circle r="13.035" cx="321.86" cy="48.54" stroke="#ff9d99" stroke-opacity="1" stroke-width="2"></circle><circle r="5.195" cx="337.5" cy="6.41" stroke="#ff9d99" stroke-opacity="1" stroke-width="2"></circle><circle r="5.16" cx="168.05" cy="18.7" stroke="#ff9d99" stroke-opacity="1" stroke-width="2"></circle><circle r="5.04" cx="360.59" cy="3.1" stroke="#ff9d99" stroke-opacity="1" stroke-width="2"></circle><circle r="7.435" cx="166.21" cy="10.8" stroke="#ff9d99" stroke-opacity="1" stroke-width="2"></circle><circle r="8.885" cx="263.3" cy="15.88" stroke="#ff9d99" stroke-opacity="1" stroke-width="2"></circle><circle r="14.65" cx="136.9" cy="39.84" stroke="#ff9d99" stroke-opacity="1" stroke-width="2"></circle><circle r="7.47" cx="241.07" cy="14.46" stroke="#ff9d99" stroke-opacity="1" stroke-width="2"></circle><circle r="10.29" cx="159.05" cy="32.09" stroke="#ff9d99" stroke-opacity="1" stroke-width="2"></circle></g><defs><clipPath id="SvgjsClipPath1027"><rect width="400" height="50" x="0" y="0"></rect></clipPath></defs></svg>